<svg width="88" height="88" viewBox="0 0 88 88" fill="none" xmlns="http://www.w3.org/2000/svg">
<rect x="4" y="4" width="80" height="80" rx="16" fill="#1E2550"/>
<rect x="4" y="4" width="80" height="80" rx="16" stroke="#0B1323" stroke-opacity="0.1" stroke-width="8"/>
<g clip-path="url(#clip0_396_1005)">
<path d="M41.0345 45.554C41.0345 44.3033 40.0208 43.2896 38.7701 43.2896H36.4168C35.1661 43.2896 34.1523 44.3033 34.1523 45.554V61.3276C34.1523 62.5783 35.1661 63.592 36.4168 63.592H38.7701C40.0208 63.592 41.0345 62.5783 41.0345 61.3276V45.554Z" fill="#1CACFF"/>
<path d="M30.8822 51.0598C30.8822 49.7141 29.7914 48.6233 28.4457 48.6233H26.4365C25.0908 48.6233 24 49.7141 24 51.0598V61.1556C24 62.5012 25.0908 63.5921 26.4365 63.5921H28.4457C29.7914 63.5921 30.8822 62.5012 30.8822 61.1556V51.0598Z" fill="#1CACFF"/>
<path d="M51.0111 39.532C51.0111 38.2813 49.9974 37.2676 48.7467 37.2676H46.3933C45.1427 37.2676 44.1289 38.2813 44.1289 39.532V61.3276C44.1289 62.5782 45.1427 63.592 46.3933 63.592H48.7467C49.9974 63.592 51.0111 62.5782 51.0111 61.3276V39.532Z" fill="#1CACFF"/>
<path d="M63.6336 30.8402L59.219 25.1771C58.8379 24.6882 58.2959 24.4077 57.7321 24.4077C57.1683 24.4077 56.6263 24.6882 56.2452 25.1771L51.8306 30.84C51.4519 31.3257 51.359 31.8589 51.5758 32.3026C51.812 32.7864 52.3791 33.0752 53.0921 33.0752L54.2819 33.0784V61.3921C54.2819 62.6407 55.2991 63.592 56.5477 63.592H58.9169C60.1655 63.592 61.1641 62.6407 61.1641 61.3921V33.0588L62.3612 33.0753C63.0758 33.0753 63.6479 32.7864 63.8841 32.3028C64.1009 31.8589 64.0123 31.3259 63.6336 30.8402Z" fill="#1CACFF"/>
</g>
<defs>
<clipPath id="clip0_396_1005">
<rect width="40" height="40" fill="white" transform="translate(24 24)"/>
</clipPath>
</defs>
</svg>
