<svg width="88" height="88" viewBox="0 0 88 88" fill="none" xmlns="http://www.w3.org/2000/svg">
<rect x="4" y="4" width="80" height="80" rx="16" fill="#1E2550"/>
<rect x="4" y="4" width="80" height="80" rx="16" stroke="#0B1323" stroke-opacity="0.1" stroke-width="8"/>
<g clip-path="url(#clip0_396_1038)">
<path fill-rule="evenodd" clip-rule="evenodd" d="M45.1033 24.0682C50.0763 24.6771 53.6141 29.2022 53.0051 34.1751C52.3962 39.1481 47.8711 42.6858 42.8981 42.0769C41.3587 41.8884 39.9571 41.3244 38.7731 40.4882L36.0017 41.7095C35.8484 41.7771 35.6787 41.7466 35.5584 41.6301C35.4381 41.5135 35.4024 41.3448 35.4652 41.1895L36.6159 38.3408C35.3439 36.559 34.7092 34.3143 34.9963 31.97C35.6053 26.997 40.1303 23.4592 45.1033 24.0682ZM43.991 32.2661C43.5456 32.2661 43.1846 32.6272 43.1846 33.0726C43.1846 33.518 43.5456 33.879 43.991 33.879C44.4364 33.879 44.7975 33.5179 44.7975 33.0726C44.7974 32.6272 44.4364 32.2661 43.991 32.2661ZM40.0809 32.2661C39.6355 32.2661 39.2744 32.6272 39.2744 33.0726C39.2744 33.518 39.6355 33.879 40.0809 33.879C40.5263 33.879 40.8874 33.5179 40.8874 33.0726C40.8873 32.6272 40.5263 32.2661 40.0809 32.2661ZM47.9206 32.2661C47.4752 32.2661 47.1141 32.6272 47.1141 33.0726C47.1141 33.518 47.4752 33.879 47.9206 33.879C48.366 33.879 48.7271 33.5179 48.7271 33.0726C48.727 32.6272 48.3659 32.2661 47.9206 32.2661ZM33.0733 54.9274C37.7856 54.9274 41.6589 58.5201 42.1034 63.1159C42.1261 63.3505 42.056 63.561 41.8976 63.7356C41.7391 63.9102 41.5362 64.0001 41.3004 64.0001H24.8461C24.6103 64.0001 24.4074 63.9102 24.2489 63.7356C24.0906 63.5611 24.0206 63.3505 24.0432 63.1159C24.4877 58.5201 28.3609 54.9274 33.0733 54.9274ZM33.0734 44.9468C35.6067 44.9468 37.6604 47.0005 37.6604 49.5339C37.6604 52.0673 35.6067 54.1209 33.0734 54.1209C30.54 54.1209 28.4863 52.0672 28.4863 49.5339C28.4863 47.0005 30.54 44.9468 33.0734 44.9468ZM54.9281 54.9274C59.6404 54.9274 63.5138 58.5201 63.9582 63.1159C63.981 63.3505 63.9109 63.561 63.7525 63.7356C63.594 63.9102 63.3911 64.0001 63.1553 64.0001H46.7009C46.4651 64.0001 46.2622 63.9102 46.1037 63.7356C45.9453 63.5611 45.8753 63.3505 45.898 63.1159C46.3425 58.5201 50.2157 54.9274 54.9281 54.9274ZM54.9281 44.9468C57.4615 44.9468 59.5152 47.0005 59.5152 49.5339C59.5152 52.0673 57.4615 54.1209 54.9281 54.1209C52.3948 54.1209 50.3411 52.0672 50.3411 49.5339C50.3411 47.0005 52.3949 44.9468 54.9281 44.9468Z" fill="#1CACFF"/>
</g>
<defs>
<clipPath id="clip0_396_1038">
<rect width="40" height="40" fill="white" transform="translate(24 24)"/>
</clipPath>
</defs>
</svg>
