<svg width="88" height="88" viewBox="0 0 88 88" fill="none" xmlns="http://www.w3.org/2000/svg">
<rect x="4" y="4" width="80" height="80" rx="16" fill="#1E2550"/>
<rect x="4" y="4" width="80" height="80" rx="16" stroke="#0B1323" stroke-opacity="0.1" stroke-width="8"/>
<path fill-rule="evenodd" clip-rule="evenodd" d="M52.2821 37.4696L48.2244 49.6482C47.9807 50.3775 48.3751 51.1682 49.1063 51.4119C49.8374 51.6556 50.6281 51.2612 50.8719 50.53L54.9295 38.3514C55.1732 37.6221 54.7788 36.8314 54.0477 36.5877C53.3165 36.344 52.5258 36.7384 52.2821 37.4696Z" fill="#1CACFF"/>
<path fill-rule="evenodd" clip-rule="evenodd" d="M55.8346 40.9284L58.9062 44.0001L55.8346 47.0717C55.2895 47.6168 55.2895 48.5005 55.8346 49.0457C56.3797 49.5908 57.2635 49.5908 57.8086 49.0457L61.8662 44.9861C62.4114 44.441 62.4114 43.5591 61.8662 43.014L57.8086 38.9545C57.2635 38.4094 56.3797 38.4094 55.8346 38.9545C55.2895 39.4996 55.2895 40.3833 55.8346 40.9284Z" fill="#1CACFF"/>
<path fill-rule="evenodd" clip-rule="evenodd" d="M45.3454 38.9545L41.2877 43.014C40.7426 43.5591 40.7426 44.441 41.2877 44.9861L45.3454 49.0457C45.8905 49.5908 46.7743 49.5908 47.3194 49.0457C47.8645 48.5005 47.8645 47.6168 47.3194 47.0717L44.2477 44.0001L47.3194 40.9284C47.8645 40.3833 47.8645 39.4996 47.3194 38.9545C46.7743 38.4094 45.8905 38.4094 45.3454 38.9545Z" fill="#1CACFF"/>
<path fill-rule="evenodd" clip-rule="evenodd" d="M52.9767 50.1098L52.64 51.1181C52.0726 52.8223 50.227 53.7451 48.5228 53.1777C47.5814 52.8633 46.8781 52.1619 46.534 51.3079C45.6372 51.3619 44.7219 51.0456 44.0353 50.3609L39.9777 46.3014C38.7051 45.0307 38.7051 42.9693 39.9777 41.6986L44.0353 37.6391C45.306 36.3684 47.3693 36.3684 48.64 37.6391C49.213 38.2121 49.5274 38.9451 49.5851 39.6949L50.5228 36.8819C50.906 35.7321 51.8679 34.9395 52.9767 34.7181V29.1163C52.9767 27.76 52.4372 26.4577 51.4791 25.4977C50.5191 24.5395 49.2167 24 47.8605 24C43.3135 24 35.6633 24 31.1163 24C29.76 24 28.4577 24.5395 27.4977 25.4977C26.5395 26.4577 26 27.76 26 29.1163V58.8837C26 60.24 26.5395 61.5423 27.4977 62.5023C28.4577 63.4605 29.76 64 31.1163 64H47.8605C49.2167 64 50.5191 63.4605 51.4791 62.5023C52.4372 61.5423 52.9767 60.24 52.9767 58.8837V50.1098ZM35.7674 59.3488H43.2093C43.9795 59.3488 44.6046 58.7237 44.6046 57.9535C44.6046 57.1833 43.9795 56.5581 43.2093 56.5581H35.7674C34.9972 56.5581 34.3721 57.1833 34.3721 57.9535C34.3721 58.7237 34.9972 59.3488 35.7674 59.3488ZM46.9302 26.7907H32.0465L33.2056 29.6874C33.6298 30.7479 34.6549 31.4419 35.7972 31.4419H43.1795C44.3219 31.4419 45.347 30.7479 45.7712 29.6874L46.9302 26.7907Z" fill="#1CACFF"/>
</svg>
