<svg width="88" height="88" viewBox="0 0 88 88" fill="none" xmlns="http://www.w3.org/2000/svg">
<rect x="4" y="4" width="80" height="80" rx="16" fill="#1E2550"/>
<rect x="4" y="4" width="80" height="80" rx="16" stroke="#0B1323" stroke-opacity="0.1" stroke-width="8"/>
<path fill-rule="evenodd" clip-rule="evenodd" d="M48.0359 60.3459C48.0359 58.9634 46.9152 57.8427 45.5327 57.8427H42.4673C41.8034 57.8427 41.1667 58.1064 40.6973 58.5759C40.2278 59.0453 39.9641 59.682 39.9641 60.3459C39.9641 61.7284 41.0848 62.8492 42.4673 62.8492H45.5327C46.9152 62.8492 48.0359 61.7284 48.0359 60.3459ZM29.2626 53.891C29.6807 53.923 30.1866 53.9413 30.6947 53.9116C30.9654 55.2844 31.6379 56.5577 32.6417 57.5616C33.9744 58.8941 35.7818 59.6428 37.6664 59.6428H38.6216C38.5795 59.8733 38.5578 60.1085 38.5578 60.3459C38.5578 60.586 38.5795 60.8211 38.6209 61.0491H37.6664C35.4088 61.0491 33.2437 60.1523 31.6473 58.5559C30.3738 57.2824 29.5455 55.6468 29.2626 53.891ZM28.5473 52.3947C27.437 52.2075 26.4039 51.6797 25.5974 50.8731C24.5746 49.8503 24 48.4631 24 47.0166V43.6929C24 42.2464 24.5746 40.8591 25.5974 39.8363C26.6202 38.8135 28.0075 38.2388 29.454 38.2388H29.817C30.3973 30.9142 36.5256 25.1506 44 25.1506C51.4744 25.1506 57.6027 30.9142 58.183 38.2388H58.546C59.9925 38.2388 61.3798 38.8135 62.4026 39.8363C63.4254 40.8591 64 42.2464 64 43.6929V47.0166C64 48.4631 63.4254 49.8503 62.4026 50.8731C61.3798 51.896 59.9925 52.4706 58.546 52.4706H56.9366C56.2691 52.4706 55.728 51.9295 55.728 51.262V39.3786C55.728 32.9014 50.4772 27.6506 44 27.6506C37.5228 27.6506 32.272 32.9014 32.272 39.3786V51.262C32.272 51.7333 32.0023 52.1417 31.6087 52.3409C30.5252 52.7169 28.845 52.4449 28.5473 52.3947Z" fill="#1CACFF"/>
</svg>
